{
  "accessors": [
    {
      "bufferView": 2,
      "componentType": 5126,
      "count": 4330,
      "max": [
        19.564453125,
        11.258255958557129,
        58.694290161132812
      ],
      "min": [
        -110.74955749511719,
        -11.256855964660645,
        -186.87286376953125
      ],
      "type": "VEC3"
    },
    {
      "bufferView": 2,
      "byteOffset": 51960,
      "componentType": 5126,
      "count": 4330,
      "max": [
        1,
        0.99964034557342529,
        0.99994403123855591
      ],
      "min": [
        -1,
        -1,
        -0.99999988079071045
      ],
      "type": "VEC3"
    },
    {
      "bufferView": 3,
      "componentType": 5126,
      "count": 4330,
      "max": [
        0.99997967481613159,
        0.99999403953552246,
        1,
        1
      ],
      "min": [
        -0.99969583749771118,
        -0.99924200773239136,
        -0.99988728761672974,
        -1
      ],
      "type": "VEC4"
    },
    {
      "bufferView": 1,
      "componentType": 5126,
      "count": 4330,
      "max": [
        0.99827301502227783,
        0.99149203300476074
      ],
      "min": [
        0.010289181023836136,
        0.0080165630206465721
      ],
      "type": "VEC2"
    },
    {
      "bufferView": 0,
      "componentType": 5125,
      "count": 9114,
      "max": [
        4329
      ],
      "min": [
        0
      ],
      "type": "SCALAR"
    }
  ],
  "asset": {
    "extras": {
      "author": "HardIdea (https://sketchfab.com/s86b16)",
      "license": "CC-BY-4.0 (http://creativecommons.org/licenses/by/4.0/)",
      "source": "https://sketchfab.com/models/eb6d8463cb184d72a240dc9e4d950998",
      "title": "HIE Viking Axe D180212"
    },
    "generator": "Sketchfab-4.20.0",
    "version": "2.0"
  },
  "bufferViews": [
    {
      "buffer": 0,
      "byteLength": 36456,
      "byteOffset": 0,
      "name": "floatBufferViews",
      "target": 34963
    },
    {
      "buffer": 0,
      "byteLength": 34640,
      "byteOffset": 36456,
      "byteStride": 8,
      "name": "floatBufferViews",
      "target": 34962
    },
    {
      "buffer": 0,
      "byteLength": 103920,
      "byteOffset": 71096,
      "byteStride": 12,
      "name": "floatBufferViews",
      "target": 34962
    },
    {
      "buffer": 0,
      "byteLength": 69280,
      "byteOffset": 175016,
      "byteStride": 16,
      "name": "floatBufferViews",
      "target": 34962
    }
  ],
  "buffers": [
    {
      "byteLength": 244296,
      "uri": "scene.bin"
    }
  ],
  "images": [
    {
      "uri": "textures/VikingAxe_D180212_metallicRoughness.png"
    },
    {
      "uri": "textures/VikingAxe_D180212_baseColor.png"
    },
    {
      "uri": "textures/VikingAxe_D180212_normal.png"
    }
  ],
  "materials": [
    {
      "doubleSided": true,
      "emissiveFactor": [
        0,
        0,
        0
      ],
      "name": "VikingAxe_D180212",
      "normalTexture": {
        "index": 2,
        "scale": 1,
        "texCoord": 0
      },
      "occlusionTexture": {
        "index": 0,
        "strength": 1,
        "texCoord": 0
      },
      "pbrMetallicRoughness": {
        "baseColorFactor": [
          1,
          1,
          1,
          1
        ],
        "baseColorTexture": {
          "index": 1,
          "texCoord": 0
        },
        "metallicFactor": 1,
        "metallicRoughnessTexture": {
          "index": 0,
          "texCoord": 0
        },
        "roughnessFactor": 1
      }
    }
  ],
  "meshes": [
    {
      "name": "VikingAxe_D180212_VikingAxe_D180212_0",
      "primitives": [
        {
          "attributes": {
            "NORMAL": 1,
            "POSITION": 0,
            "TANGENT": 2,
            "TEXCOORD_0": 3
          },
          "indices": 4,
          "material": 0,
          "mode": 4
        }
      ]
    }
  ],
  "nodes": [
    {
      "children": [
        1
      ],
      "name": "RootNode (gltf orientation matrix)",
      "rotation": [
        -0.70710678118654746,
        -0,
        -0,
        0.70710678118654757
      ]
    },
    {
      "children": [
        2
      ],
      "matrix": [
        1,
        0,
        0,
        0,
        0,
        -1,
        0,
        0,
        0,
        0,
        -1,
        0,
        0,
        -0.0013785022310912609,
        -503.50830078125,
        1
      ],
      "name": "RootNode (model correction matrix)"
    },
    {
      "children": [
        3
      ],
      "matrix": [
        1,
        0,
        0,
        0,
        0,
        -1,
        0,
        0,
        0,
        0,
        -1,
        0,
        0,
        0,
        0,
        1
      ],
      "name": "0ba07368b658472594685fd32052aa01.fbx"
    },
    {
      "children": [
        4
      ],
      "name": "RootNode"
    },
    {
      "children": [
        5
      ],
      "matrix": [
        1,
        0,
        0,
        0,
        0,
        1,
        0,
        0,
        0,
        0,
        1,
        0,
        9.9031791687011719,
        0.00071292329812422395,
        190.18052673339844,
        1
      ],
      "name": "VikingAxe_D180212"
    },
    {
      "children": [
        6
      ],
      "matrix": [
        1,
        0,
        -0,
        0,
        0,
        1,
        0,
        0,
        0,
        0,
        1,
        0,
        6.9034996032714844,
        -0.00070268841227516532,
        125.66282653808594,
        1
      ],
      "name": ""
    },
    {
      "mesh": 0,
      "name": "VikingAxe_D180212_VikingAxe_D180212_0"
    }
  ],
  "samplers": [
    {
      "magFilter": 9729,
      "minFilter": 9987,
      "wrapS": 10497,
      "wrapT": 10497
    }
  ],
  "scene": 0,
  "scenes": [
    {
      "name": "OSG_Scene",
      "nodes": [
        0
      ]
    }
  ],
  "textures": [
    {
      "sampler": 0,
      "source": 0
    },
    {
      "sampler": 0,
      "source": 1
    },
    {
      "sampler": 0,
      "source": 2
    }
  ]
}

